<svg xmlns="http://www.w3.org/2000/svg" xmlns:xlink="http://www.w3.org/1999/xlink" version="1.1" x="0px" y="0px" viewBox="0 0 64 80" style="enable-background:new 0 0 64 64;" xml:space="preserve"><g><g><path d="M55,55H31c-0.5527344,0-1-0.4472656-1-1s0.4472656-1,1-1h23V27H32v3c0,0.5522461-0.4472656,1-1,1s-1-0.4477539-1-1v-4    c0-0.5522461,0.4472656-1,1-1h24c0.5527344,0,1,0.4477539,1,1v28C56,54.5527344,55.5527344,55,55,55z"/></g><g><path d="M55,27H31c-0.5527344,0-1-0.4477539-1-1c0-7.168457,5.8320313-13,13-13s13,5.831543,13,13    C56,26.5522461,55.5527344,27,55,27z M32.0449219,25h21.9101563C53.4482422,19.4013672,48.7285156,15,43,15    S32.5517578,19.4013672,32.0449219,25z"/></g><g><path d="M47,15h-8c-0.5527344,0-1-0.4477539-1-1v-4c0-0.5522461,0.4472656-1,1-1h8c0.5527344,0,1,0.4477539,1,1v4    C48,14.5522461,47.5527344,15,47,15z M40,13h6v-2h-6V13z"/></g><g><path d="M25,26c-0.5527344,0-1-0.4477539-1-1v-5h-6v5c0,0.5522461-0.4472656,1-1,1s-1-0.4477539-1-1v-6    c0-0.5522461,0.4472656-1,1-1h8c0.5527344,0,1,0.4477539,1,1v6C26,25.5522461,25.5527344,26,25,26z"/></g><g><path d="M23,20h-4c-0.5527344,0-1-0.4477539-1-1v-5c0-2.7568359,2.2431641-5,5-5h16c0.5527344,0,1,0.4477539,1,1v4    c0,0.5522461-0.4472656,1-1,1H25c-0.5517578,0-1,0.4487305-1,1v3C24,19.5522461,23.5527344,20,23,20z M20,18h2v-2    c0-1.6542969,1.3457031-3,3-3h13v-2H23c-1.6542969,0-3,1.3457031-3,3V18z"/></g><g><path d="M33,33H9c-0.4199219,0-0.7958984-0.2626953-0.9394531-0.6572266s-0.0263672-0.8374023,0.2958984-1.1079102l12-10.1015625    c0.3710938-0.3134766,0.9160156-0.3134766,1.2871094,0l12,10.1015625    c0.3222656,0.2705078,0.4394531,0.7133789,0.2958984,1.1079102S33.4199219,33,33,33z M11.7412109,31h18.5175781L21,23.2055664    L11.7412109,31z"/></g><g><path d="M32,55H10c-0.5527344,0-1-0.4472656-1-1V32c0-0.5522461,0.4472656-1,1-1h22c0.5527344,0,1,0.4477539,1,1v22    C33,54.5527344,32.5527344,55,32,55z M11,53h20V33H11V53z"/></g><g><g><path d="M38.671875,46.9941406c-0.5029297,0-0.9335938-0.3730469-0.9912109-0.8828125     c-0.0195313-0.1748047-0.4199219-4.3242188,4.9472656-7.0078125c0.4941406-0.2451172,1.09375-0.046875,1.3417969,0.4472656     c0.2470703,0.4941406,0.046875,1.0947266-0.4472656,1.3417969c-4.0634766,2.0322266-3.8632813,4.8867188-3.8525391,5.0078125     c0.0478516,0.5449219-0.3515625,1.0341797-0.8964844,1.0878906     C38.7392578,46.9921875,38.7050781,46.9941406,38.671875,46.9941406z"/></g><g><path d="M42.1240234,45.7207031c-0.9501953,0-2.0185547-0.125-3.2226563-0.4179688     c-0.1630859-0.0400391-0.3144531-0.1201172-0.4384766-0.234375c-0.1162109-0.1054688-2.8359375-2.6337891-2.3486328-5.6142578     C36.4248047,37.5546875,37.9179688,36,40.5507813,34.8349609c1.2958984-0.5742188,7.1171875-1.5439453,8.2714844-1.7324219     c0.4501953-0.0742188,0.9033203,0.1728516,1.0830078,0.5986328c0.4199219,0.9970703,0.8125,6.3095703-1.9335938,9.5361328     C46.9277344,44.4638672,45.125,45.7207031,42.1240234,45.7207031z M39.6435547,43.4228516     c3.0107422,0.6767578,5.2646484,0.2207031,6.6953125-1.3574219c1.7978516-1.9804688,1.9492188-5.2861328,1.8330078-6.8261719     c-2.5820313,0.4404297-6.0869141,1.1035156-6.8105469,1.4238281c-1.9775391,0.8759766-3.078125,1.9228516-3.2734375,3.1132813     C37.8320313,41.3417969,39.1621094,42.9130859,39.6435547,43.4228516z"/></g></g><g><path d="M19.5859375,51.1796875c-0.0917969,0-0.1855469-0.0126953-0.2773438-0.0390625    c-0.4003906-0.1152344-0.6875-0.4677734-0.7197266-0.8828125l-0.4111328-5.2734375h-2.6699219    c-0.3417969,0-0.6601563-0.1748047-0.84375-0.4628906c-0.1835938-0.2890625-0.2070313-0.6513672-0.0615234-0.9609375    l3.8203125-8.1640625c0.1640625-0.3515625,0.5175781-0.5761719,0.9052734-0.5761719h4.8730469    c0.3427734,0,0.6621094,0.1757813,0.8457031,0.4658203c0.1826172,0.2900391,0.2050781,0.6542969,0.0576172,0.9638672    l-1.6074219,3.3759766l3.0810547,0.2646484c0.3613281,0.03125,0.6767578,0.2548828,0.8261719,0.5859375    c0.1484375,0.3300781,0.1064453,0.7158203-0.109375,1.0068359l-6.90625,9.2929688    C20.1962891,51.0341797,19.8964844,51.1796875,19.5859375,51.1796875z M17.0800781,42.984375h2.0224609    c0.5224609,0,0.9560547,0.4013672,0.9970703,0.921875L20.375,47.4414063l4.2451172-5.7119141l-2.7314453-0.234375    c-0.3261814-0.0273438-0.6181641-0.2138672-0.78125-0.4990234c-0.1630859-0.2841797-0.1767578-0.6308594-0.0361328-0.9267578    l1.546875-3.2490234h-2.6542969L17.0800781,42.984375z"/></g></g><text x="0" y="79" fill="#000000" font-size="5px" font-weight="bold" font-family="'Helvetica Neue', Helvetica, Arial-Unicode, Arial, Sans-serif">Created by Ian Rahmadi Kurniawan</text><text x="0" y="84" fill="#000000" font-size="5px" font-weight="bold" font-family="'Helvetica Neue', Helvetica, Arial-Unicode, Arial, Sans-serif">from the Noun Project</text></svg>