<?xml version="1.0" encoding="UTF-8" standalone="no"?><!DOCTYPE svg PUBLIC "-//W3C//DTD SVG 1.1//EN" "http://www.w3.org/Graphics/SVG/1.1/DTD/svg11.dtd"><svg width="100%" height="100%" viewBox="0 0 200 200" version="1.1" xmlns="http://www.w3.org/2000/svg" xmlns:xlink="http://www.w3.org/1999/xlink" xml:space="preserve" xmlns:serif="http://www.serif.com/" style="fill-rule:evenodd;clip-rule:evenodd;stroke-linejoin:round;stroke-miterlimit:2;"><rect id="Artboard1" x="0" y="0" width="200" height="200" style="fill:none;"/><clipPath id="_clip1"><rect x="0" y="0" width="200" height="200"/></clipPath><g clip-path="url(#_clip1)"><g><g><path d="M195.833,195.833l-100,0c-2.303,0 -4.166,-1.863 -4.166,-4.166c-0,-2.303 1.863,-4.167 4.166,-4.167l95.834,-0l-0,-108.333l-91.667,-0l0,12.5c0,2.301 -1.864,4.166 -4.167,4.166c-2.303,0 -4.166,-1.865 -4.166,-4.166l-0,-16.667c-0,-2.301 1.863,-4.167 4.166,-4.167l100,0c2.303,0 4.167,1.866 4.167,4.167l0,116.667c0,2.303 -1.864,4.166 -4.167,4.166Z" style="fill-rule:nonzero;"/></g><g><path d="M195.833,79.167l-100,-0c-2.303,-0 -4.166,-1.866 -4.166,-4.167c-0,-29.869 24.3,-54.167 54.166,-54.167c29.867,0 54.167,24.298 54.167,54.167c0,2.301 -1.864,4.167 -4.167,4.167Zm-95.646,-8.334l91.292,0c-2.111,-23.327 -21.777,-41.666 -45.646,-41.666c-23.868,-0 -43.534,18.339 -45.646,41.666Z" style="fill-rule:nonzero;"/></g><g><path d="M162.5,29.167l-33.333,-0c-2.303,-0 -4.167,-1.866 -4.167,-4.167l0,-16.667c0,-2.301 1.864,-4.166 4.167,-4.166l33.333,-0c2.303,-0 4.167,1.865 4.167,4.166l-0,16.667c-0,2.301 -1.864,4.167 -4.167,4.167Zm-29.167,-8.334l25,0l0,-8.333l-25,-0l0,8.333Z" style="fill-rule:nonzero;"/></g><g><path d="M70.833,75c-2.303,-0 -4.166,-1.866 -4.166,-4.167l-0,-20.833l-25,-0l-0,20.833c-0,2.301 -1.864,4.167 -4.167,4.167c-2.303,-0 -4.167,-1.866 -4.167,-4.167l0,-25c0,-2.301 1.864,-4.166 4.167,-4.166l33.333,-0c2.303,-0 4.167,1.865 4.167,4.166l0,25c0,2.301 -1.864,4.167 -4.167,4.167Z" style="fill-rule:nonzero;"/></g><g><path d="M62.5,50l-16.667,-0c-2.303,-0 -4.166,-1.866 -4.166,-4.167l-0,-20.833c-0,-11.487 9.346,-20.833 20.833,-20.833l66.667,-0c2.303,-0 4.166,1.865 4.166,4.166l0,16.667c0,2.301 -1.863,4.167 -4.166,4.167l-58.334,-0c-2.299,-0 -4.166,1.869 -4.166,4.166l-0,12.5c-0,2.301 -1.864,4.167 -4.167,4.167Zm-12.5,-8.333l8.333,-0l0,-8.334c0,-6.893 5.607,-12.5 12.5,-12.5l54.167,0l0,-8.333l-62.5,-0c-6.893,-0 -12.5,5.607 -12.5,12.5l0,16.667Z" style="fill-rule:nonzero;"/></g><g><path d="M104.167,104.167l-100,-0c-1.75,-0 -3.317,-1.095 -3.915,-2.739c-0.598,-1.644 -0.11,-3.489 1.233,-4.616l50,-42.09c1.546,-1.306 3.817,-1.306 5.363,0l50,42.09c1.343,1.127 1.831,2.972 1.233,4.616c-0.598,1.644 -2.165,2.739 -3.914,2.739Zm-88.579,-8.334l77.157,0l-38.578,-32.476l-38.579,32.476Z" style="fill-rule:nonzero;"/></g><g><path d="M100,195.833l-91.667,0c-2.303,0 -4.166,-1.863 -4.166,-4.166l-0,-91.667c-0,-2.301 1.863,-4.167 4.166,-4.167l91.667,0c2.303,0 4.167,1.866 4.167,4.167l-0,91.667c-0,2.303 -1.864,4.166 -4.167,4.166Zm-87.5,-8.333l83.333,-0l0,-83.333l-83.333,-0l0,83.333Z" style="fill-rule:nonzero;"/></g><g><g><path d="M127.799,162.476c-2.095,-0 -3.889,-1.555 -4.13,-3.679c-0.081,-0.728 -1.749,-18.017 20.614,-29.199c2.059,-1.021 4.557,-0.195 5.591,1.864c1.029,2.059 0.195,4.561 -1.864,5.59c-16.931,8.468 -16.097,20.362 -16.052,20.866c0.199,2.271 -1.465,4.309 -3.735,4.533c-0.143,0.016 -0.285,0.025 -0.424,0.025Z" style="fill-rule:nonzero;"/></g><g><path d="M142.183,157.17c-3.959,-0 -8.41,-0.521 -13.427,-1.742c-0.68,-0.167 -1.311,-0.5 -1.827,-0.977c-0.485,-0.439 -11.817,-10.974 -9.786,-23.392c1.294,-7.914 7.515,-14.392 18.485,-19.247c5.4,-2.392 29.655,-6.433 34.465,-7.218c1.876,-0.309 3.764,0.72 4.512,2.494c1.75,4.155 3.386,26.29 -8.056,39.734c-4.35,5.111 -11.861,10.348 -24.366,10.348Zm-10.335,-9.575c12.545,2.82 21.936,0.92 27.897,-5.656c7.491,-8.252 8.122,-22.025 7.638,-28.442c-10.759,1.835 -25.362,4.598 -28.377,5.933c-8.24,3.649 -12.826,8.011 -13.64,12.972c-1.066,6.522 4.476,13.069 6.482,15.193Z" style="fill-rule:nonzero;"/></g></g><g><path d="M48.275,179.915c-0.383,0 -0.773,-0.053 -1.156,-0.162c-1.668,-0.481 -2.864,-1.949 -2.999,-3.679l-1.713,-21.972l-11.124,-0c-1.425,-0 -2.751,-0.729 -3.516,-1.929c-0.765,-1.205 -0.863,-2.714 -0.256,-4.004l15.918,-34.017c0.683,-1.465 2.156,-2.401 3.772,-2.401l20.304,0c1.428,0 2.759,0.733 3.524,1.941c0.761,1.209 0.854,2.726 0.24,4.016l-6.698,14.067l12.838,1.103c1.505,0.13 2.82,1.062 3.442,2.441c0.619,1.375 0.444,2.983 -0.455,4.195l-28.777,38.721c-0.801,1.074 -2.05,1.68 -3.344,1.68Zm-10.441,-34.147l8.427,0c2.176,0 3.983,1.673 4.154,3.841l1.148,14.73l17.687,-23.799l-11.381,-0.977c-1.359,-0.114 -2.575,-0.891 -3.255,-2.079c-0.679,-1.184 -0.736,-2.629 -0.15,-3.862l6.445,-13.537l-11.06,-0l-12.015,25.683Z" style="fill-rule:nonzero;"/></g></g></g></svg>