<?xml version="1.0" encoding="UTF-8" standalone="no"?><!DOCTYPE svg PUBLIC "-//W3C//DTD SVG 1.1//EN" "http://www.w3.org/Graphics/SVG/1.1/DTD/svg11.dtd"><svg width="100%" height="100%" viewBox="0 0 214 234" version="1.1" xmlns="http://www.w3.org/2000/svg" xmlns:xlink="http://www.w3.org/1999/xlink" xml:space="preserve" xmlns:serif="http://www.serif.com/" style="fill-rule:evenodd;clip-rule:evenodd;stroke-linejoin:round;stroke-miterlimit:2;"><g><path d="M194.387,74.333c-0.329,-2.028 -2.112,-3.526 -4.167,-3.5l-166.666,0c-2.055,-0.026 -3.838,1.472 -4.167,3.5l-19.333,120.834c-0.036,0.22 -0.054,0.443 -0.054,0.667c0,2.285 1.881,4.166 4.167,4.166c0.018,0 0.035,0 0.053,0l86,0l0,25l-50,0l0,8.333l133.334,0l-0,-8.333l-50,0l-0,-25l86,0c0.018,0 0.036,0 0.053,0c2.286,0 4.167,-1.881 4.167,-4.166c0,-0.224 -0.018,-0.447 -0.054,-0.667l-19.333,-120.834Zm-79.167,150.667l-16.666,0l-0,-25l16.666,0l0,25Zm89.459,-33.333l-195.584,-0l18,-112.5l159.584,-0l18,112.5Zm-26.959,-108.334l-141.666,0c-2.082,-0.02 -3.876,1.522 -4.167,3.584l-12.5,91.666c-0.169,1.203 0.197,2.422 1,3.334c0.799,0.909 1.956,1.427 3.167,1.416l166.666,0c1.197,-0.001 2.336,-0.518 3.125,-1.416c0.804,-0.912 1.169,-2.131 1,-3.334l-12.5,-91.666c-0.289,-2.046 -2.058,-3.583 -4.125,-3.584Zm-112.25,33.334l17.917,-0l-2.292,25l-19.041,-0l3.416,-25Zm-11.833,25l-20.833,-0l3.375,-25l20.833,-0l-3.375,25Zm67.625,-33.334l-28.75,0l1.5,-16.666l25.75,-0l1.5,16.666Zm6.875,-16.666l16.667,-0l2.25,16.666l-17.417,0l-1.5,-16.666Zm-6.125,25l2.292,25l-34.834,-0l2.292,-25l30.25,-0Zm-37.875,-8.334l-17.542,0l2.25,-16.666l16.667,-0l-1.375,16.666Zm-3.792,41.667l-2.25,25l-20.583,0l3.542,-25l19.291,0Zm8.334,0l36.333,0l2.25,25l-40.792,0l2.209,-25Zm44.708,0l19.333,0l3.375,25l-20.416,0l-2.292,-25Zm-0.75,-8.333l-2.292,-25l17.917,-0l3.417,25l-19.042,-0Zm24.25,-25l20.833,-0l3.375,25l-20.833,-0l-3.375,-25Zm19.625,-8.334l-20.833,0l-2.25,-16.666l20.833,-0l2.25,16.666Zm-116.083,-16.666l-2.25,16.666l-20.834,0l2.25,-16.666l20.834,-0Zm-28.542,58.333l20.833,0l-3.375,25l-20.833,0l3.375,-25Zm132.958,25l-3.375,-25l20.834,0l3.375,25l-20.834,0Zm-53.791,-158.333l-8.334,-0l0,-16.667l8.334,0l-0,16.667Zm32.583,17.083l-5.917,-5.917l20.209,-20.208l5.916,5.917l-20.208,20.208Zm9.083,24.583l29.167,0l0,8.334l-29.167,-0l0,-8.334Zm-91.666,8.334l-29.167,-0l0,-8.334l29.167,0l-0,8.334Zm4.166,-2.334c0,-22.857 18.809,-41.666 41.667,-41.666c22.858,-0 41.667,18.809 41.667,41.666l-0,2.334l-8.334,-0l0,-1.834c0,-18.286 -15.047,-33.333 -33.333,-33.333c-18.286,-0 -33.333,15.047 -33.333,33.333l-0,1.834l-8.334,-0l0,-2.334Zm4.875,-30.583l-20.166,-20.208l5.916,-5.917l20.209,20.208l-5.959,5.917Z" style="fill-rule:nonzero;"/></g></svg>