<svg xmlns="http://www.w3.org/2000/svg" viewBox="0 0 64 80" x="0px" y="0px"><title>08  Solar Power, Ecology, Green Energy, Green Power, Renewable, </title><g data-name="08  Solar Power, Ecology, Green Energy, Green Power, Renewable,"><path d="M53,21.84A1,1,0,0,0,52,21H12a1,1,0,0,0-1,.84l-4.64,29a1,1,0,0,0,1,1.16H28v6H16v2H48V58H36V52H56.64a1,1,0,0,0,1-1.16ZM34,58H30V52h4Zm1-8H8.53l4.32-27h38.3l4.32,27ZM49,24H15a1,1,0,0,0-1,.86l-3,22a1,1,0,0,0,.24.8A1,1,0,0,0,12,48H52a1,1,0,0,0,.75-.34,1,1,0,0,0,.24-.8l-3-22A1,1,0,0,0,49,24ZM22.06,32h4.3l-.55,6H21.24Zm-2.84,6h-5l.81-6h5Zm16.23-8h-6.9l.36-4h6.18Zm1.65-4h4l.54,4H37.46Zm-1.47,6,.55,6H27.82l.55-6Zm-9.09-2H22.33l.54-4h4Zm-.91,10-.54,6H20.15L21,40Zm2,0h8.72l.54,6H27.1Zm10.73,0H43l.81,6H38.91Zm-.18-2-.55-6h4.3l.82,6ZM44,32h5l.81,6h-5Zm4.71-2h-5l-.54-4h5ZM20.85,26l-.54,4h-5l.54-4ZM14,40h5l-.81,6h-5Zm31.91,6-.81-6h5l.81,6ZM33,8H31V4h2Zm7.82,4.1L39.4,10.68l4.85-4.85,1.42,1.42ZM43,18h7v2H43ZM21,20H14V18h7Zm1-.56a10,10,0,0,1,20,0c0,.18,0,.37,0,.56H40c0-.15,0-.3,0-.44a8,8,0,0,0-16,0c0,.14,0,.29,0,.44H22C22,19.81,22,19.62,22,19.44Zm1.17-7.34L18.33,7.25l1.42-1.42,4.85,4.85Z"/></g><text x="0" y="79" fill="#000000" font-size="5px" font-weight="bold" font-family="'Helvetica Neue', Helvetica, Arial-Unicode, Arial, Sans-serif">Created by Stockes Design</text><text x="0" y="84" fill="#000000" font-size="5px" font-weight="bold" font-family="'Helvetica Neue', Helvetica, Arial-Unicode, Arial, Sans-serif">from the Noun Project</text></svg>