<?xml version="1.0" encoding="UTF-8" standalone="no"?><!DOCTYPE svg PUBLIC "-//W3C//DTD SVG 1.1//EN" "http://www.w3.org/Graphics/SVG/1.1/DTD/svg11.dtd"><svg width="100%" height="100%" viewBox="0 0 200 201" version="1.1" xmlns="http://www.w3.org/2000/svg" xmlns:xlink="http://www.w3.org/1999/xlink" xml:space="preserve" xmlns:serif="http://www.serif.com/" style="fill-rule:evenodd;clip-rule:evenodd;stroke-linejoin:round;stroke-miterlimit:2;"><rect id="Artboard1" x="0" y="0" width="200" height="200" style="fill:none;"/><g id="Artboard11" serif:id="Artboard1"><path d="M112.5,200l-25,0c-0.004,0 -0.007,0 -0.011,0c-2.285,0 -4.166,-1.881 -4.166,-4.167c-0,-0.098 0.003,-0.197 0.01,-0.295l7.5,-105.251c0.156,-2.173 1.988,-3.879 4.167,-3.879c2.292,0 4.177,1.886 4.177,4.177c0,0.1 -0.003,0.199 -0.01,0.298l-7.192,100.784l16.05,-0l-7.192,-100.784c-0.007,-0.099 -0.01,-0.198 -0.01,-0.298c-0,-2.291 1.885,-4.177 4.177,-4.177c2.179,0 4.011,1.706 4.167,3.879l7.5,105.251c0.007,0.098 0.01,0.197 0.01,0.295c0,2.286 -1.881,4.167 -4.166,4.167c-0.004,0 -0.007,0 -0.011,0Z" style="fill-rule:nonzero;"/><path d="M105.833,72.292c-0.314,-0 -0.627,-0.035 -0.933,-0.104c-1.889,-0.431 -3.24,-2.125 -3.24,-4.063c-0,-0.315 0.036,-0.63 0.107,-0.937c1.68,-8.401 2.464,-16.956 2.337,-25.521c0.44,-10.733 -0.97,-21.462 -4.166,-31.717c-3.197,10.255 -4.607,20.984 -4.167,31.717c-0.122,8.569 0.668,17.126 2.354,25.529c0.07,0.305 0.105,0.616 0.105,0.929c-0,2.286 -1.881,4.167 -4.168,4.167c-1.936,0 -3.63,-1.35 -4.062,-3.238c-1.823,-9.012 -2.682,-18.193 -2.563,-27.387c0.001,-9.775 0.901,-41.667 12.501,-41.667c11.599,0 12.499,31.892 12.499,41.667c0.123,9.194 -0.736,18.375 -2.562,27.387c-0.43,1.881 -2.113,3.228 -4.042,3.238Z" style="fill-rule:nonzero;"/><path d="M41.133,122.746c-0.908,0.011 -1.814,-0.095 -2.695,-0.317c-1.905,-0.453 -3.52,-1.718 -4.417,-3.458c-5.271,-10.538 22.367,-29.804 27.958,-33.554c7.172,-4.966 14.875,-9.116 22.967,-12.375c0.423,-0.141 0.866,-0.212 1.312,-0.212c2.286,-0 4.167,1.881 4.167,4.166c-0,1.678 -1.014,3.199 -2.562,3.846c-7.487,3.031 -14.614,6.884 -21.251,11.487c-14.408,9.679 -22.187,18.192 -24.345,22.063c4.166,-0.579 14.2,-4.338 27.5,-13.279c6.801,-4.446 13.137,-9.565 18.912,-15.28c0.786,-0.825 1.877,-1.292 3.017,-1.292c2.286,-0 4.167,1.881 4.167,4.166c-0,1.099 -0.435,2.155 -1.209,2.935c-6.171,6.129 -12.944,11.62 -20.216,16.391c-11.059,7.409 -24.988,14.713 -33.305,14.713Z" style="fill-rule:nonzero;"/><path d="M158.867,122.746c-8.334,-0 -22.246,-7.304 -33.334,-14.734c-7.268,-4.77 -14.039,-10.26 -20.208,-16.387c-0.75,-0.777 -1.17,-1.816 -1.17,-2.896c-0,-2.286 1.881,-4.168 4.168,-4.168c1.13,0 2.213,0.46 2.998,1.272c5.763,5.711 12.086,10.827 18.875,15.271c13.333,8.95 23.333,12.709 27.5,13.288c-2.158,-3.871 -9.938,-12.384 -24.338,-22.059c-6.637,-4.604 -13.764,-8.458 -21.25,-11.491c-1.548,-0.647 -2.562,-2.168 -2.562,-3.846c0,-2.285 1.881,-4.166 4.167,-4.166c0.446,-0 0.889,0.071 1.312,0.212c8.103,3.256 15.818,7.407 23,12.375c5.588,3.75 33.229,23.029 27.95,33.579c-0.899,1.735 -2.512,2.994 -4.412,3.446c-0.882,0.217 -1.788,0.319 -2.696,0.304Z" style="fill-rule:nonzero;"/><path d="M100,95.833c-9.143,0 -16.667,-7.523 -16.667,-16.666c0,-9.143 7.524,-16.667 16.667,-16.667c9.143,0 16.667,7.524 16.667,16.667c-0,9.143 -7.524,16.666 -16.667,16.666Zm0,-25c-4.572,0 -8.333,3.762 -8.333,8.334c-0,4.571 3.761,8.333 8.333,8.333c4.572,0 8.333,-3.762 8.333,-8.333c0,-4.572 -3.761,-8.334 -8.333,-8.334Z" style="fill-rule:nonzero;"/></g></svg>