<svg xmlns="http://www.w3.org/2000/svg" viewBox="0 0 48 60" x="0px" y="0px"><title>wind, power, energy, eco, ecology, alternative, green_1</title><path d="M27,48H21a1,1,0,0,1-1-1.071l1.8-25.26a1,1,0,0,1,2,.143L22.074,46h3.852L24.2,21.812a1,1,0,0,1,2-.143L28,46.929A1,1,0,0,1,27,48Z"/><path d="M25.4,17.35a1.012,1.012,0,0,1-.224-.025,1,1,0,0,1-.752-1.2A29.031,29.031,0,0,0,24.985,10a22.488,22.488,0,0,0-1-7.612,22.488,22.488,0,0,0-1,7.612,29.044,29.044,0,0,0,.565,6.127,1,1,0,0,1-1.95.446A31.1,31.1,0,0,1,20.985,10c0-2.346.216-10,3-10s3,7.654,3,10a31.01,31.01,0,0,1-.615,6.573A1,1,0,0,1,25.4,17.35Z"/><path d="M9.872,29.459a2.519,2.519,0,0,1-.647-.076,1.613,1.613,0,0,1-1.06-.83C6.9,26.024,13.533,21.4,14.875,20.5a28.182,28.182,0,0,1,5.512-2.97,1,1,0,0,1,.7,1.872,26.212,26.212,0,0,0-5.1,2.757c-3.458,2.323-5.325,4.366-5.843,5.295,1-.139,3.408-1.041,6.6-3.187A29.045,29.045,0,0,0,21.283,20.6a1,1,0,1,1,1.434,1.394,31.083,31.083,0,0,1-4.852,3.934C15.211,27.706,11.868,29.459,9.872,29.459Z"/><path d="M38.128,29.459c-2,0-5.339-1.753-8-3.536a31.1,31.1,0,0,1-4.85-3.933A1,1,0,0,1,26.717,20.6a29,29,0,0,0,4.53,3.665c3.2,2.148,5.6,3.05,6.6,3.189-.518-.929-2.385-2.972-5.841-5.294a26.235,26.235,0,0,0-5.1-2.758,1,1,0,0,1,.7-1.872A28.171,28.171,0,0,1,33.126,20.5c1.341.9,7.975,5.527,6.708,8.059a1.613,1.613,0,0,1-1.059.827A2.519,2.519,0,0,1,38.128,29.459Z"/><path d="M24,23a4,4,0,1,1,4-4A4,4,0,0,1,24,23Zm0-6a2,2,0,1,0,2,2A2,2,0,0,0,24,17Z"/><text x="0" y="63" fill="#000000" font-size="5px" font-weight="bold" font-family="'Helvetica Neue', Helvetica, Arial-Unicode, Arial, Sans-serif">Created by KP Arts</text><text x="0" y="68" fill="#000000" font-size="5px" font-weight="bold" font-family="'Helvetica Neue', Helvetica, Arial-Unicode, Arial, Sans-serif">from the Noun Project</text></svg>